<?xml version="1.0" encoding="UTF-8" standalone="no"?>
<!DOCTYPE svg PUBLIC "-//W3C//DTD SVG 1.1//EN" "http://www.w3.org/Graphics/SVG/1.1/DTD/svg11.dtd">
<svg xmlns="http://www.w3.org/2000/svg" version="1.1" viewBox="0.00 0.00 426.00 316.00">
<g stroke-width="2.00" fill="none" stroke-linecap="butt">
<path stroke="#59697b" vector-effect="non-scaling-stroke" d="
  M 332.37 93.99
  L 332.27 95.14
  Q 332.21 95.74 332.69 95.38
  Q 333.41 94.82 333.66 93.99"
/>
<path stroke="#59697b" vector-effect="non-scaling-stroke" d="
  M 360.58 77.96
  L 360.65 77.27
  Q 360.70 76.75 360.24 76.98
  L 359.77 77.22
  Q 359.63 77.28 359.62 77.44
  Q 359.59 77.72 359.64 77.73"
/>
<path stroke="#59697b" vector-effect="non-scaling-stroke" d="
  M 269.32 133.75
  C 261.95 146.35 256.01 155.18 240.88 158.77
  A 0.46 0.46 0.0 0 1 240.32 158.24
  L 241.40 152.27
  Q 241.49 151.77 241.95 151.55
  C 254.99 145.21 259.02 132.28 261.38 118.87"
/>
<path stroke="#607182" vector-effect="non-scaling-stroke" d="
  M 236.22 95.64
  L 231.35 122.68
  Q 231.26 123.18 230.75 123.18
  L 209.25 123.18
  Q 208.63 123.18 208.74 122.56
  L 215.93 83.09"
/>
<path stroke="#5284bc" vector-effect="non-scaling-stroke" d="
  M 263.23 262.98
  L 232.41 259.68"
/>
<path stroke="#bbd3ef" vector-effect="non-scaling-stroke" d="
  M 232.41 259.68
  Q 245.47 239.51 252.81 217.17
  Q 252.96 216.70 253.45 216.78
  Q 262.46 218.15 271.50 219.29
  Q 273.10 219.49 273.94 219.14
  A 1.17 1.17 0.0 0 0 273.81 216.93
  L 254.75 211.66
  Q 254.36 211.55 254.47 211.16
  Q 257.83 198.68 257.61 185.76
  Q 257.56 182.89 256.65 180.57
  A 1.00 1.00 0.0 0 0 254.74 180.75
  Q 251.94 195.24 247.67 209.37
  A 0.75 0.75 0.0 0 1 246.81 209.89
  L 163.77 193.40"
/>
<path stroke="#bbd3ef" vector-effect="non-scaling-stroke" d="
  M 163.12 193.67
  Q 162.02 195.75 161.99 198.82"
/>
<path stroke="#5284bc" vector-effect="non-scaling-stroke" d="
  M 86.34 224.50
  L 75.84 219.55"
/>
<path stroke="#5284bc" vector-effect="non-scaling-stroke" d="
  M 153.59 246.70
  Q 187.81 254.24 222.22 258.38"
/>
<path stroke="#6a92c2" vector-effect="non-scaling-stroke" d="
  M 222.22 258.38
  L 232.41 259.68"
/>
<path stroke="#5284bc" vector-effect="non-scaling-stroke" d="
  M 254.73 272.63
  L 222.39 272.22"
/>
<path stroke="#6a92c2" vector-effect="non-scaling-stroke" d="
  M 222.39 272.22
  L 211.00 271.72"
/>
<path stroke="#5284bc" vector-effect="non-scaling-stroke" d="
  M 211.00 271.72
  L 189.48 270.36"
/>
<path stroke="#6a92c2" vector-effect="non-scaling-stroke" d="
  M 189.48 270.36
  L 149.11 264.97"
/>
<path stroke="#5284bc" vector-effect="non-scaling-stroke" d="
  M 149.11 264.97
  Q 133.30 261.75 117.75 257.26
  Q 116.84 256.99 115.26 257.33"
/>
<path stroke="#5284bc" vector-effect="non-scaling-stroke" d="
  M 94.08 249.60
  L 83.17 245.28"
/>
<path stroke="#bbd3ef" vector-effect="non-scaling-stroke" d="
  M 222.22 258.38
  Q 236.75 238.68 245.20 216.16
  Q 245.38 215.68 244.87 215.58
  L 162.95 199.87"
/>
<path stroke="#bbd3ef" vector-effect="non-scaling-stroke" d="
  M 149.11 264.97
  L 149.39 269.04"
/>
<path stroke="#bbd3ef" vector-effect="non-scaling-stroke" d="
  M 189.48 270.36
  Q 198.69 273.29 207.96 274.65
  Q 208.43 274.72 208.83 274.45
  Q 210.33 273.42 211.00 271.72"
/>
<path stroke="#bbd3ef" vector-effect="non-scaling-stroke" d="
  M 222.39 272.22
  L 218.80 276.62
  Q 218.45 277.05 218.98 277.19
  Q 226.10 279.07 233.24 280.85
  Q 234.51 281.16 235.22 281.62
  A 0.88 0.88 0.0 0 1 234.76 283.24
  Q 224.57 283.30 214.53 281.43
  A 0.98 0.98 0.0 0 0 213.64 281.71
  Q 196.35 298.85 173.62 307.38
  C 171.25 308.27 168.17 308.84 165.87 308.75
  A 0.94 0.94 0.0 0 1 165.49 306.97
  Q 186.12 296.54 202.93 280.65
  Q 203.38 280.22 202.77 280.11
  L 149.94 270.65"
/>
</g>
<path fill="#0f0d0d" d="
  M 307.78 0.00
  L 314.78 0.00
  L 319.93 1.75
  Q 320.53 1.96 320.43 2.59
  L 318.62 13.29
  Q 318.51 13.92 317.95 13.59
  C 316.63 12.80 315.17 11.58 314.15 11.03
  C 300.15 3.38 294.33 21.09 292.40 31.02
  Q 290.75 39.49 289.27 47.96
  A 0.49 0.48 5.0 0 0 289.75 48.52
  L 326.98 48.53
  A 0.63 0.62 86.9 0 1 327.60 49.09
  L 332.37 93.99
  L 332.27 95.14
  Q 332.21 95.74 332.69 95.38
  Q 333.41 94.82 333.66 93.99
  L 352.51 49.49
  A 1.59 1.58 11.5 0 1 353.97 48.53
  L 374.97 48.53
  Q 376.16 48.53 376.31 49.71
  L 381.80 94.66
  A 0.48 0.48 0.0 0 0 382.72 94.79
  L 402.04 49.00
  A 0.74 0.74 0.0 0 1 402.72 48.55
  L 426.00 48.59
  L 426.00 49.81
  L 390.70 122.53
  A 1.16 1.14 12.6 0 1 389.66 123.18
  L 367.74 123.18
  Q 367.14 123.18 367.06 122.59
  L 360.58 77.96
  L 360.65 77.27
  Q 360.70 76.75 360.24 76.98
  L 359.77 77.22
  Q 359.63 77.28 359.62 77.44
  Q 359.59 77.72 359.64 77.73
  L 339.36 122.46
  Q 339.03 123.18 338.25 123.18
  L 316.38 123.17
  A 0.75 0.74 -4.5 0 1 315.64 122.55
  L 304.71 55.45
  Q 304.64 55.00 304.19 55.00
  L 288.47 55.00
  A 0.71 0.71 0.0 0 0 287.77 55.59
  Q 284.38 75.14 280.77 94.49
  Q 276.62 116.73 269.32 133.75
  C 261.95 146.35 256.01 155.18 240.88 158.77
  A 0.46 0.46 0.0 0 1 240.32 158.24
  L 241.40 152.27
  Q 241.49 151.77 241.95 151.55
  C 254.99 145.21 259.02 132.28 261.38 118.87
  L 272.98 55.60
  Q 273.09 55.00 272.48 55.00
  L 259.44 55.00
  A 0.47 0.47 0.0 0 1 258.98 54.43
  L 260.14 49.02
  Q 260.24 48.53 260.74 48.53
  L 273.76 48.52
  A 0.72 0.72 0.0 0 0 274.47 47.93
  C 277.07 34.48 279.58 22.27 288.09 11.61
  Q 295.51 2.32 307.78 0.00
  Z"
/>
<path fill="#1d1d1b" d="
  M 236.22 95.64
  L 231.35 122.68
  Q 231.26 123.18 230.75 123.18
  L 209.25 123.18
  Q 208.63 123.18 208.74 122.56
  L 215.93 83.09
  L 222.15 49.12
  Q 222.25 48.58 222.80 48.58
  L 243.99 48.56
  Q 244.65 48.56 244.54 49.21
  L 236.22 95.64
  Z"
/>
<path fill="#a3c5e9" d="
  M 215.93 83.09
  L 208.74 122.56
  Q 208.63 123.18 209.25 123.18
  L 230.75 123.18
  Q 231.26 123.18 231.35 122.68
  L 236.22 95.64
  Q 241.78 99.78 246.88 104.36
  C 250.10 107.25 253.12 111.50 256.64 114.78
  Q 257.01 115.12 257.17 115.60
  Q 258.41 119.21 261.38 118.87
  C 259.02 132.28 254.99 145.21 241.95 151.55
  Q 241.49 151.77 241.40 152.27
  L 240.32 158.24
  A 0.46 0.46 0.0 0 0 240.88 158.77
  C 256.01 155.18 261.95 146.35 269.32 133.75
  Q 279.67 152.54 283.13 172.98
  C 284.45 180.74 284.31 189.36 284.27 197.76
  C 284.19 216.41 278.38 235.42 269.41 251.67
  Q 269.35 251.76 267.57 254.42
  Q 266.58 255.89 266.03 257.64
  A 0.89 0.85 84.0 0 1 265.64 258.14
  Q 264.33 258.92 264.20 260.37
  Q 264.15 260.86 263.73 261.11
  Q 262.65 261.75 263.23 262.98
  L 232.41 259.68
  Q 245.47 239.51 252.81 217.17
  Q 252.96 216.70 253.45 216.78
  Q 262.46 218.15 271.50 219.29
  Q 273.10 219.49 273.94 219.14
  A 1.17 1.17 0.0 0 0 273.81 216.93
  L 254.75 211.66
  Q 254.36 211.55 254.47 211.16
  Q 257.83 198.68 257.61 185.76
  Q 257.56 182.89 256.65 180.57
  A 1.00 1.00 0.0 0 0 254.74 180.75
  Q 251.94 195.24 247.67 209.37
  A 0.75 0.75 0.0 0 1 246.81 209.89
  L 163.77 193.40
  L 173.91 135.08
  A 1.33 1.32 86.1 0 0 172.21 133.59
  C 171.09 133.95 169.22 133.15 168.21 132.97
  Q 139.10 127.86 109.96 121.72
  Q 109.44 121.61 109.13 122.04
  Q 91.02 147.48 86.55 178.51
  Q 86.48 179.04 87.00 179.14
  L 163.12 193.67
  Q 162.02 195.75 161.99 198.82
  L 87.27 184.88
  Q 85.41 184.53 85.36 186.41
  Q 85.22 190.96 84.95 196.51
  C 84.87 198.08 84.02 199.86 84.40 201.77
  Q 85.02 204.92 85.03 205.34
  Q 85.16 210.42 85.43 215.46
  Q 85.47 216.17 86.19 219.91
  Q 86.60 222.05 86.34 224.50
  L 75.84 219.55
  L 75.77 212.86
  Q 75.76 212.40 75.39 212.13
  L 75.09 211.92
  Q 75.01 211.86 75.00 211.76
  Q 74.50 201.47 74.89 191.19
  C 74.98 188.69 76.11 185.93 75.67 182.87
  Q 75.60 182.41 75.15 182.29
  Q 62.85 179.19 50.64 175.75
  Q 44.80 174.10 50.85 174.64
  Q 63.05 175.73 75.09 177.82
  Q 76.50 178.07 76.74 176.65
  Q 81.75 146.30 99.72 121.40
  A 1.84 1.84 0.0 0 0 98.66 118.53
  L 78.85 113.84
  A 0.40 0.39 45.1 0 1 78.85 113.07
  Q 79.82 112.84 80.98 112.99
  Q 89.30 114.08 97.63 115.10
  C 99.53 115.34 101.73 116.09 104.15 115.67
  Q 104.67 115.58 104.99 115.17
  Q 110.56 108.01 117.41 102.01
  Q 117.69 101.77 118.06 101.71
  Q 118.24 101.69 118.41 101.65
  Q 118.53 101.62 118.62 101.53
  Q 137.04 84.26 160.46 78.15
  Q 163.58 77.33 160.64 78.64
  C 143.00 86.51 127.13 100.45 114.28 114.70
  A 1.69 1.69 0.0 0 0 115.24 117.50
  L 173.98 127.97
  Q 175.48 128.23 175.75 126.74
  L 185.15 73.95
  Q 185.36 72.81 186.50 73.02
  Q 201.13 75.71 215.93 83.09
  Z"
/>
<path fill="#a3c5e9" d="
  M 360.58 77.96
  Q 360.28 78.03 359.64 77.73
  Q 359.59 77.72 359.62 77.44
  Q 359.63 77.28 359.77 77.22
  L 360.24 76.98
  Q 360.70 76.75 360.65 77.27
  L 360.58 77.96
  Z"
/>
<path fill="#a3c5e9" d="
  M 332.37 93.99
  Q 333.28 94.22 333.66 93.99
  Q 333.41 94.82 332.69 95.38
  Q 332.21 95.74 332.27 95.14
  L 332.37 93.99
  Z"
/>
<path fill="#01438f" d="
  M 75.84 219.55
  L 86.34 224.50
  C 107.41 234.37 130.79 241.44 153.59 246.70
  Q 187.81 254.24 222.22 258.38
  L 232.41 259.68
  L 263.23 262.98
  Q 281.38 264.95 299.63 266.30
  Q 300.90 266.40 302.25 267.20
  Q 302.78 267.51 302.24 267.80
  Q 300.80 268.57 299.26 268.81
  Q 276.92 272.29 254.73 272.63
  L 222.39 272.22
  L 211.00 271.72
  L 189.48 270.36
  L 149.11 264.97
  Q 133.30 261.75 117.75 257.26
  Q 116.84 256.99 115.26 257.33
  Q 115.39 256.73 115.02 256.61
  Q 104.43 253.21 94.08 249.60
  L 83.17 245.28
  Q 55.88 234.42 32.75 216.53
  C 18.13 205.22 3.62 188.88 0.00 170.87
  L 0.00 163.27
  C 4.62 139.94 37.24 131.63 56.98 131.05
  A 0.79 0.79 0.0 0 1 57.24 132.59
  C 33.57 139.98 7.13 154.65 29.32 183.50
  C 41.27 199.04 58.23 211.03 75.84 219.55
  Z"
/>
<path fill="#d3e1f5" d="
  M 232.41 259.68
  L 222.22 258.38
  Q 236.75 238.68 245.20 216.16
  Q 245.38 215.68 244.87 215.58
  L 162.95 199.87
  Q 163.07 199.08 161.99 198.82
  Q 162.02 195.75 163.12 193.67
  Q 163.63 193.74 163.77 193.40
  L 246.81 209.89
  A 0.75 0.75 0.0 0 0 247.67 209.37
  Q 251.94 195.24 254.74 180.75
  A 1.00 1.00 0.0 0 1 256.65 180.57
  Q 257.56 182.89 257.61 185.76
  Q 257.83 198.68 254.47 211.16
  Q 254.36 211.55 254.75 211.66
  L 273.81 216.93
  A 1.17 1.17 0.0 0 1 273.94 219.14
  Q 273.10 219.49 271.50 219.29
  Q 262.46 218.15 253.45 216.78
  Q 252.96 216.70 252.81 217.17
  Q 245.47 239.51 232.41 259.68
  Z"
/>
<path fill="#a3c5e9" d="
  M 162.95 199.87
  L 244.87 215.58
  Q 245.38 215.68 245.20 216.16
  Q 236.75 238.68 222.22 258.38
  Q 187.81 254.24 153.59 246.70
  Q 154.94 245.19 154.97 241.79
  Q 154.98 241.30 155.25 240.89
  C 155.95 239.83 155.53 238.58 155.72 237.54
  Q 158.99 220.09 161.98 202.59
  C 162.13 201.74 162.73 200.78 162.95 199.87
  Z"
/>
<path fill="#a3c5e9" d="
  M 94.08 249.60
  Q 93.77 252.50 94.82 254.19
  Q 95.10 254.65 95.62 254.76
  Q 100.65 255.85 110.24 257.43
  Q 113.30 257.94 115.26 257.33
  Q 116.84 256.99 117.75 257.26
  Q 133.30 261.75 149.11 264.97
  L 149.39 269.04
  C 147.38 269.51 145.84 269.25 143.85 268.70
  Q 143.09 268.49 141.75 268.28
  Q 130.65 266.59 104.54 261.24
  C 103.18 260.96 100.66 259.90 99.25 260.35
  Q 97.55 260.89 98.26 262.53
  Q 106.26 281.04 118.23 297.25
  A 0.59 0.59 0.0 0 1 117.37 298.05
  C 114.07 295.24 112.25 292.93 108.51 288.50
  Q 96.58 274.36 88.10 257.89
  Q 87.87 257.44 87.38 257.33
  L 66.47 252.35
  Q 54.74 249.56 66.73 250.79
  Q 71.98 251.32 79.62 252.63
  Q 82.07 253.05 84.55 252.74
  A 0.55 0.55 0.0 0 0 85.01 252.05
  L 83.17 245.28
  L 94.08 249.60
  Z"
/>
<path fill="#d3e1f5" d="
  M 149.11 264.97
  L 189.48 270.36
  Q 198.69 273.29 207.96 274.65
  Q 208.43 274.72 208.83 274.45
  Q 210.33 273.42 211.00 271.72
  L 222.39 272.22
  L 218.80 276.62
  Q 218.45 277.05 218.98 277.19
  Q 226.10 279.07 233.24 280.85
  Q 234.51 281.16 235.22 281.62
  A 0.88 0.88 0.0 0 1 234.76 283.24
  Q 224.57 283.30 214.53 281.43
  A 0.98 0.98 0.0 0 0 213.64 281.71
  Q 196.35 298.85 173.62 307.38
  C 171.25 308.27 168.17 308.84 165.87 308.75
  A 0.94 0.94 0.0 0 1 165.49 306.97
  Q 186.12 296.54 202.93 280.65
  Q 203.38 280.22 202.77 280.11
  L 149.94 270.65
  Q 150.20 268.62 149.39 269.04
  L 149.11 264.97
  Z"
/>
<path fill="#a3c5e9" d="
  M 149.94 270.65
  L 202.77 280.11
  Q 203.38 280.22 202.93 280.65
  Q 186.12 296.54 165.49 306.97
  A 0.94 0.94 0.0 0 0 165.87 308.75
  C 168.17 308.84 171.25 308.27 173.62 307.38
  Q 196.35 298.85 213.64 281.71
  A 0.98 0.98 0.0 0 1 214.53 281.43
  Q 224.57 283.30 234.76 283.24
  A 0.88 0.88 0.0 0 0 235.22 281.62
  Q 234.51 281.16 233.24 280.85
  Q 226.10 279.07 218.98 277.19
  Q 218.45 277.05 218.80 276.62
  L 222.39 272.22
  L 254.73 272.63
  Q 247.72 280.83 237.89 288.62
  Q 209.22 311.34 171.20 314.71
  Q 164.18 315.33 158.85 315.01
  Q 157.24 314.91 150.58 314.28
  Q 146.69 313.91 142.82 313.11
  Q 142.39 313.02 142.46 312.59
  L 149.94 270.65
  Z"
/>
<path fill="#a3c5e9" d="
  M 189.48 270.36
  L 211.00 271.72
  Q 210.33 273.42 208.83 274.45
  Q 208.43 274.72 207.96 274.65
  Q 198.69 273.29 189.48 270.36
  Z"
/>
</svg>
